<svg width="14" height="14" viewBox="0 0 14 14" fill="none" xmlns="http://www.w3.org/2000/svg">
<g clip-path="url(#clip0_3_202)">
<path d="M7.00008 1.16666C8.585 1.16666 8.78275 1.17249 9.40458 1.20166C10.0258 1.23082 10.4487 1.32824 10.8209 1.47291C11.2059 1.62107 11.5302 1.82174 11.8546 2.14549C12.1512 2.4371 12.3807 2.78983 12.5272 3.17916C12.6712 3.55074 12.7692 3.97424 12.7984 4.59549C12.8258 5.21732 12.8334 5.41507 12.8334 6.99999C12.8334 8.58491 12.8276 8.78266 12.7984 9.40449C12.7692 10.0257 12.6712 10.4487 12.5272 10.8208C12.3811 11.2104 12.1516 11.5632 11.8546 11.8545C11.5629 12.151 11.2102 12.3805 10.8209 12.5271C10.4493 12.6712 10.0258 12.7692 9.40458 12.7983C8.78275 12.8257 8.585 12.8333 7.00008 12.8333C5.41516 12.8333 5.21741 12.8275 4.59558 12.7983C3.97433 12.7692 3.55141 12.6712 3.17925 12.5271C2.78977 12.3809 2.43697 12.1514 2.14558 11.8545C1.8489 11.5629 1.61937 11.2102 1.473 10.8208C1.32833 10.4492 1.23091 10.0257 1.20175 9.40449C1.17433 8.78266 1.16675 8.58491 1.16675 6.99999C1.16675 5.41507 1.17258 5.21732 1.20175 4.59549C1.23091 3.97366 1.32833 3.55132 1.473 3.17916C1.61897 2.78959 1.84855 2.43676 2.14558 2.14549C2.43706 1.84871 2.78983 1.61917 3.17925 1.47291C3.55141 1.32824 3.97375 1.23082 4.59558 1.20166C5.21741 1.17424 5.41516 1.16666 7.00008 1.16666ZM7.00008 4.08332C6.22653 4.08332 5.48467 4.39061 4.93769 4.9376C4.39071 5.48458 4.08342 6.22644 4.08342 6.99999C4.08342 7.77354 4.39071 8.5154 4.93769 9.06239C5.48467 9.60937 6.22653 9.91666 7.00008 9.91666C7.77363 9.91666 8.5155 9.60937 9.06248 9.06239C9.60946 8.5154 9.91675 7.77354 9.91675 6.99999C9.91675 6.22644 9.60946 5.48458 9.06248 4.9376C8.5155 4.39061 7.77363 4.08332 7.00008 4.08332ZM10.7917 3.93749C10.7917 3.7441 10.7149 3.55864 10.5782 3.42189C10.4414 3.28515 10.256 3.20832 10.0626 3.20832C9.86919 3.20832 9.68373 3.28515 9.54698 3.42189C9.41024 3.55864 9.33342 3.7441 9.33342 3.93749C9.33342 4.13088 9.41024 4.31634 9.54698 4.45309C9.68373 4.58983 9.86919 4.66666 10.0626 4.66666C10.256 4.66666 10.4414 4.58983 10.5782 4.45309C10.7149 4.31634 10.7917 4.13088 10.7917 3.93749ZM7.00008 5.24999C7.46421 5.24999 7.90933 5.43436 8.23752 5.76255C8.56571 6.09074 8.75008 6.53586 8.75008 6.99999C8.75008 7.46412 8.56571 7.90924 8.23752 8.23743C7.90933 8.56562 7.46421 8.74999 7.00008 8.74999C6.53595 8.74999 6.09083 8.56562 5.76264 8.23743C5.43446 7.90924 5.25008 7.46412 5.25008 6.99999C5.25008 6.53586 5.43446 6.09074 5.76264 5.76255C6.09083 5.43436 6.53595 5.24999 7.00008 5.24999Z" fill="#2B2B2B"/>
</g>
<defs>
<clipPath id="clip0_3_202">
<rect width="14" height="14" fill="white"/>
</clipPath>
</defs>
</svg>
