<svg width="14" height="14" viewBox="0 0 14 14" fill="none" xmlns="http://www.w3.org/2000/svg">
<g clip-path="url(#clip0_3_216)">
<path d="M4.04842 2.91667C4.04827 3.22609 3.9252 3.52277 3.7063 3.74146C3.4874 3.96014 3.19059 4.08291 2.88117 4.08275C2.57175 4.0826 2.27507 3.95953 2.05638 3.74063C1.8377 3.52173 1.71493 3.22492 1.71509 2.9155C1.71524 2.60608 1.83831 2.3094 2.05721 2.09072C2.27611 1.87203 2.57292 1.74927 2.88234 1.74942C3.19176 1.74958 3.48844 1.87264 3.70713 2.09154C3.92581 2.31044 4.04858 2.60725 4.04842 2.91667ZM4.08342 4.94667H1.75009V12.25H4.08342V4.94667ZM7.77009 4.94667H5.44842V12.25H7.74675V8.4175C7.74675 6.2825 10.5293 6.08417 10.5293 8.4175V12.25H12.8334V7.62417C12.8334 4.025 8.71509 4.15917 7.74675 5.92667L7.77009 4.94667Z" fill="#2B2B2B"/>
</g>
<defs>
<clipPath id="clip0_3_216">
<rect width="14" height="14" fill="white"/>
</clipPath>
</defs>
</svg>
