<svg width="14" height="14" viewBox="0 0 14 14" fill="none" xmlns="http://www.w3.org/2000/svg">
<g clip-path="url(#clip0_3_223)">
<path d="M12.5668 3.79051C12.8334 4.83001 12.8334 7.00001 12.8334 7.00001C12.8334 7.00001 12.8334 9.17001 12.5668 10.2095C12.4187 10.7841 11.9852 11.2362 11.4363 11.389C10.4394 11.6667 7.00008 11.6667 7.00008 11.6667C7.00008 11.6667 3.5625 11.6667 2.56383 11.389C2.01258 11.2338 1.57975 10.7823 1.43333 10.2095C1.16675 9.17001 1.16675 7.00001 1.16675 7.00001C1.16675 7.00001 1.16675 4.83001 1.43333 3.79051C1.5815 3.21593 2.01491 2.76384 2.56383 2.61101C3.5625 2.33334 7.00008 2.33334 7.00008 2.33334C7.00008 2.33334 10.4394 2.33334 11.4363 2.61101C11.9876 2.76618 12.4204 3.21768 12.5668 3.79051ZM5.83342 9.04168L9.33342 7.00001L5.83342 4.95834V9.04168Z" fill="#2B2B2B"/>
</g>
<defs>
<clipPath id="clip0_3_223">
<rect width="14" height="14" fill="white"/>
</clipPath>
</defs>
</svg>
